# xmcd
#
# Track frame offsets:
#	150
#	59198
#	100951
#	144605
#	199922
#
# Disc length: 3044 seconds
#
# Revision: 1
# Processed by: cddbd v1.5.2PL0 Copyright (c) Steve Scherf et al.
# Submitted via: audiograbber 1.83.01
#
DISCID=4f0be205
DTITLE=Jerry Garcia Band - 78-03-18 Warner Music Theatre Hall, Washington DC
DYEAR=1900
DGENRE=
TTITLE0=The Harder They Come, The Harder They Fall
TTITLE1=Mission In The Rain
TTITLE2=Simple Twist Of Fate
TTITLE3=Midnight Moonlight
TTITLE4=Gomorrah
EXTD=
EXTT0=
EXTT1=
EXTT2=
EXTT3=
EXTT4=
PLAYORDER=
